# xmcd
#
# Track frame offsets: 
#        150
#        516
#        12792
#        30912
#        49309
#        50625
#        69849
#        91348
#        110093
#        110652
#        130467
#        143394
#        143823
#        163128
#
# Disc length: 2369 seconds
#
# Revision: 1
# Processed by: cddbd v1.5.2PL0 Copyright (c) Steve Scherf et al.
# Submitted via: ExactAudioCopy v0.99pb5
#
DISCID=b7093f0e
DTITLE=DEAD PREZ and THE OUTLAWZ - CAN'T SELL DOPE FOREVER
DYEAR=2006
DGENRE=Hip-Hop
TTITLE0=Intro
TTITLE1=OneNation
TTITLE2=Cant Sell Dope Forever
TTITLE3=Like A Window
TTITLE4=Surroundings
TTITLE5=Thuggin On The BloKKk
TTITLE6=U Aint The Only One
TTITLE7=Searchin
TTITLE8=Dedication
TTITLE9=Fork In The Road
TTITLE10=Believe
TTITLE11=WRBG
TTITLE12=Holding On
TTITLE13=Came Up
EXTD=
EXTT0=
EXTT1=
EXTT2=
EXTT3=
EXTT4=
EXTT5=
EXTT6=
EXTT7=
EXTT8=
EXTT9=
EXTT10=
EXTT11=
EXTT12=
EXTT13=
PLAYORDER=
